#!OML:ASF X:\2005_08_12_Meinard\c3d\meinard.ASF
:FULLY-SPECIFIED
:DEGREES
1258
root -2.5674 16.9264 -5.45228 -32.7859 -66.7645 15.5534
lowerback 33.495 -0.92387 -0.485923
upperback 3.5004 -2.62152 -5.54153
thorax -13.6631 -1.44124 -4.62739
lowerneck 2.43755 -16.8169 5.9069
upperneck -15.8417 -21.6451 8.1462
head -4.93608 -11.5178 2.66853
rclavicle 3.9906e-014 3.4191e-014
rhumerus 38.2584 -22.5903 -5.01651
rradius 42.4715
rwrist 15.3503
rhand -25.087 -7.67036
rfingers 7.12502
rthumb 1.42751 -37.6453
lclavicle 3.9906e-014 3.4191e-014
lhumerus 161.185 135.75 222.649
lradius 8.44285
lwrist -55.8964
lhand -15.9431 -7.81827
lfingers 7.12502
lthumb 10.255 21.9117
rfemur 3.92149 -10.776 11.7036
rtibia 40.6956
rfoot -20.6892 15.0557
rtoes -3.18385
lfemur 19.076 -6.13411 -8.25253
ltibia 25.8054
lfoot 8.19063 7.24964
ltoes -36.9924
1259
root -2.55527 16.88 -5.44983 -33.3391 -66.8747 15.8536
lowerback 33.5445 -0.947273 -0.438729
upperback 3.65433 -2.63538 -5.53168
thorax -13.5078 -1.45105 -4.63329
lowerneck 2.29059 -16.8188 5.81961
upperneck -15.7768 -21.6584 8.23025
head -4.87235 -11.5239 2.68133
rclavicle 1.03865e-014 5.64548e-014
rhumerus 38.459 -20.4604 -3.77618
rradius 45.7615
rwrist 16.167
rhand -25.1333 -6.86787
rfingers 7.12502
rthumb 1.38284 -36.8431
lclavicle 1.03865e-014 5.64548e-014
lhumerus 161.647 135.704 223.088
lradius 8.71636
lwrist -56.1436
lhand -15.9801 -8.29981
lfingers 7.12502
lthumb 10.2193 21.432
rfemur 3.80583 -10.7379 11.5916
rtibia 41.4603
rfoot -21.324 15.0546
rtoes -3.33581
lfemur 19.4902 -6.10695 -8.2398
ltibia 25.7838
lfoot 7.52616 6.51826
ltoes -37.2704
1260
root -2.54276 16.8323 -5.44837 -33.827 -66.9711 16.1201
lowerback 33.5634 -0.975828 -0.374285
upperback 3.7929 -2.64817 -5.52193
thorax -13.3588 -1.46099 -4.64982
lowerneck 2.21891 -16.8307 5.63236
upperneck -15.7253 -21.6756 8.39208
head -4.80455 -11.5325 2.73329
rclavicle -2.9768e-014 1.82882e-014
rhumerus 38.7503 -18.3352 -2.54574
rradius 49.0195
rwrist 16.8569
rhand -25.2742 -5.96465
rfingers 7.12502
rthumb 1.2467 -35.9408
lclavicle -2.9768e-014 1.82882e-014
lhumerus 162.1 135.683 223.551
lradius 9.02164
lwrist -56.4048
lhand -15.9341 -8.81063
lfingers 7.12502
lthumb 10.2637 20.919
rfemur 3.67559 -10.6666 11.5159
rtibia 42.1672
rfoot -21.9009 15.0052
rtoes -3.34648
lfemur 19.8388 -6.13176 -8.23753
ltibia 25.8018
lfoot 6.93164 5.81463
ltoes -37.509
1261
root -2.53013 16.7902 -5.44703 -34.2411 -67.0626 16.3399
lowerback 33.6099 -0.983032 -0.363022
upperback 3.89514 -2.64915 -5.48091
thorax -13.2569 -1.46183 -4.60856
lowerneck 2.11693 -16.8372 5.61329
upperneck -15.6725 -21.6888 8.44297
head -4.76344 -11.5397 2.73558
rclavicle 3.05631e-014 6.36111e-015
rhumerus 39.1118 -16.1806 -1.26218
rradius 52.3458
rwrist 17.4673
rhand -25.3954 -5.1238
rfingers 7.12502
rthumb 1.12965 -35.1006
lclavicle 3.05631e-014 6.36111e-015
lhumerus 162.56 135.678 224.063
lradius 9.27597
lwrist -56.6998
lhand -15.8832 -9.40806
lfingers 7.12502
lthumb 10.3128 20.3191
rfemur 3.55006 -10.5719 11.4795
rtibia 42.7939
rfoot -22.4429 14.9076
rtoes -3.46928
lfemur 20.1015 -6.12852 -8.21066
ltibia 25.8668
lfoot 6.38923 5.09755
ltoes -37.8977
1262
root -2.51642 16.7532 -5.44573 -34.541 -67.1531 16.4675
lowerback 33.6357 -1.00741 -0.326861
upperback 3.99993 -2.65989 -5.42751
thorax -13.1449 -1.46783 -4.56356
lowerneck 2.01248 -16.8366 5.56475
upperneck -15.6442 -21.6914 8.52522
head -4.72286 -11.5432 2.75015
rclavicle 1.99779e-014 -5.24792e-014
rhumerus 39.6511 -14.0684 -0.0321539
rradius 55.707
rwrist 18.0376
rhand -25.4638 -4.40725
rfingers 7.12502
rthumb 1.06358 -34.3843
lclavicle 1.99779e-014 -5.24792e-014
lhumerus 163.01 135.65 224.57
lradius 9.54515
lwrist -57.0401
lhand -15.7482 -10.0533
lfingers 7.12502
lthumb 10.443 19.6673
rfemur 3.42103 -10.4751 11.4874
rtibia 43.3669
rfoot -22.9487 14.7875
rtoes -3.64723
lfemur 20.2522 -6.14463 -8.16356
ltibia 26.0336
lfoot 5.86847 4.4013
ltoes -38.2604
1263
root -2.50135 16.7205 -5.44436 -34.7833 -67.2245 16.556
lowerback 33.674 -1.03847 -0.251884
upperback 4.08326 -2.66908 -5.3959
thorax -13.0663 -1.47541 -4.56437
lowerneck 1.9531 -16.8469 5.56417
upperneck -15.6228 -21.7005 8.61354
head -4.69634 -11.5527 2.76669
rclavicle -4.74598e-014 4.53229e-014
rhumerus 40.3041 -11.9383 1.16446
rradius 59.1083
rwrist 18.6234
rhand -25.3333 -3.94771
rfingers 7.12502
rthumb 1.18967 -33.9241
lclavicle -4.74598e-014 4.53229e-014
lhumerus 163.561 135.674 225.154
lradius 9.73494
lwrist -57.39
lhand -15.5867 -10.7292
lfingers 7.12502
lthumb 10.5988 18.9835
rfemur 3.3016 -10.4221 11.4848
rtibia 43.86
rfoot -23.3596 14.7291
rtoes -3.61829
lfemur 20.3297 -6.19917 -8.13065
ltibia 26.2634
lfoot 5.36382 3.79997
ltoes -38.3978
1264
root -2.48587 16.6868 -5.4431 -35.0043 -67.2831 16.6642
lowerback 33.6795 -1.05646 -0.195327
upperback 4.1593 -2.66527 -5.35493
thorax -12.98 -1.4758 -4.5509
lowerneck 1.83503 -16.8529 5.57611
upperneck -15.5879 -21.7112 8.67625
head -4.66053 -11.5612 2.7685
rclavicle -2.85256e-014 -1.19271e-014
rhumerus 41.102 -9.81175 2.35148
rradius 62.5985
rwrist 19.0638
rhand -24.9403 -3.70742
rfingers 7.12502
rthumb 1.56918 -33.6814
lclavicle -2.85256e-014 -1.19271e-014
lhumerus 164.19 135.68 225.906
lradius 9.8663
lwrist -57.7828
lhand -15.4716 -11.3834
lfingers 7.12502
lthumb 10.7099 18.3237
rfemur 3.15751 -10.3847 11.4663
rtibia 44.3002
rfoot -23.6875 14.6699
rtoes -3.56725
lfemur 20.3268 -6.24143 -8.10769
ltibia 26.5619
lfoot 4.90344 3.24565
ltoes -38.5282
1265
root -2.4719 16.6606 -5.44173 -35.1636 -67.3391 16.702
lowerback 33.7087 -1.0892 -0.110687
upperback 4.20747 -2.67061 -5.31251
thorax -12.9375 -1.48131 -4.54746
lowerneck 1.7862 -16.8551 5.63354
upperneck -15.5729 -21.7078 8.73154
head -4.64831 -11.5652 2.77142
rclavicle 3.598e-014 -4.69132e-014
rhumerus 42.0717 -7.63623 3.50482
rradius 66.1443
rwrist 19.4914
rhand -24.2971 -3.652
rfingers 7.12502
rthumb 2.19041 -33.6205
lclavicle 3.598e-014 -4.69132e-014
lhumerus 164.867 135.689 226.761
lradius 9.90175
lwrist -58.1607
lhand -15.4119 -11.9579
lfingers 7.12502
lthumb 10.7674 17.7461
rfemur 3.06376 -10.3412 11.4681
rtibia 44.6717
rfoot -23.992 14.6275
rtoes -3.60303
lfemur 20.3057 -6.31439 -8.07713
ltibia 26.8952
lfoot 4.47164 2.76661
ltoes -38.5225
1266
root -2.45823 16.6379 -5.44061 -35.226 -67.3837 16.6627
lowerback 33.7077 -1.13119 -0.00301985
upperback 4.25663 -2.67696 -5.26425
thorax -12.8823 -1.48793 -4.55014
lowerneck 1.67913 -16.8517 5.7178
upperneck -15.5347 -21.7033 8.7674
head -4.6248 -11.5677 2.7591
rclavicle -1.0138e-014 2.38542e-014
rhumerus 43.1493 -5.45699 4.699
rradius 69.7405
rwrist 19.912
rhand -23.4597 -3.72296
rfingers 7.12502
rthumb 2.99915 -33.6816
lclavicle -1.0138e-014 2.38542e-014
lhumerus 165.702 135.681 227.77
lradius 9.77615
lwrist -58.5897
lhand -15.4822 -12.5049
lfingers 7.12502
lthumb 10.6997 17.2026
rfemur 2.97428 -10.3176 11.4945
rtibia 44.9895
rfoot -24.2308 14.5955
rtoes -3.51334
lfemur 20.2276 -6.39276 -8.0258
ltibia 27.2586
lfoot 4.0989 2.31485
ltoes -38.6117
1267
root -2.44659 16.618 -5.4385 -35.3642 -67.4195 16.7058
lowerback 33.6997 -1.15593 0.0801825
upperback 4.28967 -2.67236 -5.22998
thorax -12.8419 -1.4888 -4.55962
lowerneck 1.59284 -16.853 5.87775
upperneck -15.5024 -21.7053 8.7395
head -4.62235 -11.573 2.72509
rclavicle 8.05078e-015 -2.14687e-014
rhumerus 44.3085 -3.24284 6.01145
rradius 73.2804
rwrist 20.3067
rhand -22.6146 -3.61651
rfingers 7.12502
rthumb 3.81525 -33.5621
lclavicle 8.05078e-015 -2.14687e-014
lhumerus 166.523 135.734 228.758
lradius 9.61276
lwrist -58.9524
lhand -15.611 -13.1047
lfingers 7.12502
lthumb 10.5754 16.6092
rfemur 2.9276 -10.2603 11.4852
rtibia 45.2293
rfoot -24.4358 14.5702
rtoes -3.53231
lfemur 20.1729 -6.47871 -8.03986
ltibia 27.6043
lfoot 3.75133 1.96788
ltoes -38.732
1268
root -2.43638 16.6015 -5.43673 -35.4674 -67.4357 16.7081
lowerback 33.6799 -1.18537 0.163507
upperback 4.33222 -2.67339 -5.19599
thorax -12.7863 -1.49215 -4.56721
lowerneck 1.40588 -16.8544 6.04429
upperneck -15.3902 -21.7187 8.70794
head -4.57978 -11.5808 2.67448
rclavicle -3.55825e-014 -1.94809e-014
rhumerus 45.5598 -1.06232 7.58007
rradius 76.7764
rwrist 20.6773
rhand -21.7785 -3.36353
rfingers 7.12502
rthumb 4.62264 -33.2931
lclavicle -3.55825e-014 -1.94809e-014
lhumerus 167.237 135.818 229.651
lradius 9.53702
lwrist -59.274
lhand -15.6459 -13.7772
lfingers 7.12502
lthumb 10.5417 15.9384
rfemur 2.92153 -10.2136 11.4784
rtibia 45.4102
rfoot -24.6242 14.5507
rtoes -3.54667
lfemur 20.1142 -6.55552 -8.03532
ltibia 27.9336
lfoot 3.47061 1.64623
ltoes -38.8396
